<svg width="1125" height="1115" viewBox="0 0 1125 1115" fill="none" xmlns="http://www.w3.org/2000/svg">
<path d="M539.168 0.687315C460.502 3.88732 387.435 29.4873 326.635 74.954C275.568 113.087 239.435 156.021 212.368 210.421C193.568 248.154 182.902 284.154 176.235 331.754C174.368 345.221 173.968 373.754 173.568 565.087C173.302 684.954 173.435 785.087 173.835 787.354C174.635 792.154 178.902 793.487 180.368 789.621C180.768 788.421 181.168 692.554 181.168 576.554C181.168 400.287 181.435 362.154 183.168 344.954C187.968 294.954 198.635 256.687 219.835 213.754C237.968 176.954 258.102 149.087 288.368 119.087C319.435 88.2873 350.902 65.4873 387.168 47.754C425.968 28.6873 460.235 18.2873 503.835 12.154C529.168 8.68731 584.635 8.95398 610.102 12.8206C694.768 25.6206 762.235 58.8206 820.902 116.821C881.035 176.154 914.368 243.887 928.768 335.754C930.768 348.154 931.035 374.421 931.702 570.421L932.502 791.087L935.302 791.487C937.435 791.754 938.368 790.954 939.035 788.687C940.502 782.821 938.635 361.621 937.035 344.421C930.768 275.887 903.968 206.287 862.635 151.221C829.968 107.754 781.435 66.954 732.902 42.2873C683.435 17.2206 637.035 5.08731 575.035 1.08732C563.435 0.420649 552.635 -0.112685 551.168 0.0206486C549.702 0.153982 544.368 0.420649 539.168 0.687315Z" fill="white"/>
<path d="M564.769 240.554C564.235 241.087 563.835 262.021 563.835 287.087V332.687L576.235 338.821C590.635 346.021 603.569 356.287 611.569 366.954C638.902 403.087 644.369 451.221 625.835 491.354C615.035 514.554 595.302 534.554 570.902 546.954L563.835 550.421V597.621C563.835 639.487 564.102 644.954 565.969 645.621C567.169 646.021 568.635 646.154 569.302 645.621C569.969 645.221 570.502 626.154 570.502 601.487V558.154L574.235 558.954C576.235 559.487 587.169 560.154 598.502 560.554C617.702 561.221 620.102 561.087 632.502 557.887C669.702 548.287 697.169 526.154 714.235 492.154C731.435 458.021 729.569 413.621 709.435 379.221C701.035 364.687 681.435 345.087 667.835 337.487C649.702 327.354 625.835 321.087 606.102 321.087C595.835 321.221 578.102 323.621 572.902 325.754C570.635 326.687 570.502 323.887 570.235 283.621C569.835 245.887 569.569 240.421 567.835 240.021C566.635 239.887 565.302 240.021 564.769 240.554ZM638.902 333.621C664.769 341.354 685.035 356.021 699.702 377.887C713.702 398.821 717.835 413.087 717.835 441.087C717.835 460.954 717.702 462.287 713.435 474.287C697.835 519.087 661.569 548.021 614.769 553.087C601.302 554.554 579.835 553.754 579.835 551.754C579.835 551.221 583.835 548.154 588.902 545.087C606.635 533.621 624.902 512.021 633.569 492.154C646.235 463.354 647.169 427.221 635.969 395.754C627.835 372.554 609.035 348.821 589.969 337.487L580.769 331.887L585.302 330.554C587.835 329.754 597.969 329.354 608.502 329.621C623.835 330.021 629.169 330.687 638.902 333.621Z" fill="white"/>
<path d="M489.302 254.954C488.102 256.421 489.302 260.821 495.035 275.221C506.235 303.754 519.835 336.287 521.035 337.487C522.369 338.821 526.502 337.221 526.502 335.354C526.502 334.154 502.769 275.087 495.969 259.354C493.169 252.821 491.835 251.887 489.302 254.954Z" fill="white"/>
<path d="M533.702 286.954C532.902 288.954 538.902 321.22 541.168 327.22C542.502 330.687 546.102 331.487 547.302 328.687C547.568 327.754 545.968 317.62 543.568 306.42C540.102 290.02 538.635 285.754 536.768 285.354C535.568 285.087 534.102 285.754 533.702 286.954Z" fill="white"/>
<path d="M423.035 300.421C422.102 302.821 425.302 306.421 458.902 339.621C483.302 363.754 487.835 366.954 487.835 360.021C487.835 356.954 429.035 298.421 425.969 298.421C424.769 298.421 423.435 299.354 423.035 300.421Z" fill="white"/>
<path d="M477.702 311.087C477.169 312.154 477.169 313.887 477.569 314.821C479.169 319.087 501.569 349.087 503.169 349.087C504.102 349.087 505.435 348.287 506.235 347.354C507.702 345.754 506.902 344.554 487.569 317.087C481.702 308.821 479.169 307.221 477.702 311.087Z" fill="white"/>
<path d="M433.569 355.221C432.502 358.154 435.169 360.287 454.235 372.287C467.569 380.554 471.035 382.287 472.635 380.954C473.702 380.154 474.502 378.687 474.502 377.887C474.502 375.887 438.902 353.087 435.835 353.087C435.035 353.087 434.102 354.021 433.569 355.221Z" fill="white"/>
<path d="M381.569 369.887C380.369 372.954 381.835 373.754 398.502 380.154C406.902 383.354 424.235 390.021 436.902 394.954C449.435 399.754 460.369 403.754 461.035 403.754C462.235 403.754 463.835 400.687 463.835 398.554C463.835 397.221 452.769 392.687 429.169 383.887C419.302 380.287 405.702 375.087 398.902 372.554C385.169 367.221 382.769 366.821 381.569 369.887Z" fill="white"/>
<path d="M542.902 404.021C542.235 404.954 540.635 408.554 539.302 412.021C536.235 420.154 526.635 430.954 517.569 436.021C513.702 438.154 510.502 440.821 510.502 441.754C510.502 442.687 513.702 445.354 517.569 447.487C527.302 452.954 536.235 463.221 540.102 473.487C541.969 478.154 544.102 481.754 545.169 481.754C546.235 481.754 548.369 478.154 550.235 473.354C554.369 462.554 564.102 451.754 573.969 447.087C577.969 445.221 581.169 442.821 581.169 441.754C581.169 440.687 577.702 438.021 573.435 435.887C561.835 430.021 551.435 417.487 548.635 406.021C547.702 402.287 545.035 401.221 542.902 404.021ZM549.569 424.421C553.302 430.154 558.769 435.754 565.035 439.887L568.235 441.887L561.435 446.821C557.702 449.487 552.635 454.687 550.102 458.421L545.569 465.087L540.369 458.154C537.435 454.287 532.235 448.954 528.769 446.421C523.302 442.421 522.769 441.621 524.635 440.421C529.835 437.354 538.902 428.154 541.302 423.487C542.769 420.687 544.369 418.421 544.902 418.421C545.435 418.421 547.569 421.087 549.569 424.421Z" fill="white"/>
<path d="M412.635 412.42C408.102 417.087 409.035 417.354 450.769 424.554C454.769 425.22 455.969 424.954 456.635 423.22C457.169 421.887 457.035 420.42 456.369 419.754C455.702 419.087 447.435 416.954 437.835 415.087C428.369 413.22 419.302 411.22 417.702 410.954C416.102 410.554 413.969 411.22 412.635 412.42Z" fill="white"/>
<path d="M366.502 439.087C365.568 440.154 365.168 442.021 365.702 443.087C366.368 444.821 371.968 445.087 410.102 444.821C453.435 444.421 453.835 444.421 454.235 441.621C454.635 439.087 453.835 438.821 443.568 438.021C437.435 437.487 417.968 437.087 400.368 437.087C373.435 437.087 367.835 437.354 366.502 439.087Z" fill="white"/>
<path d="M437.169 467.754C429.435 469.754 420.635 472.154 417.569 472.954C413.302 474.154 411.835 475.221 411.835 477.087C411.835 478.421 412.369 480.021 413.169 480.421C413.835 480.821 421.569 479.354 430.102 477.087C438.769 474.821 448.102 472.287 450.902 471.621C454.902 470.554 455.835 469.754 455.835 467.087C455.835 462.954 454.902 462.954 437.169 467.754Z" fill="white"/>
<path d="M459.835 487.621C458.769 488.287 441.969 495.221 422.502 503.087C403.035 510.954 385.835 518.154 384.235 519.221C380.902 521.354 381.435 525.087 385.169 525.087C386.369 525.087 402.102 519.087 419.969 511.887C467.302 492.687 465.435 493.621 464.902 490.154C464.502 486.821 462.635 486.021 459.835 487.621Z" fill="white"/>
<path d="M467.169 509.354C443.169 526.554 434.502 533.621 434.502 535.887C434.502 540.687 439.835 538.554 454.235 527.887C462.102 522.154 470.235 516.421 472.235 515.087C474.769 513.487 475.835 511.754 475.569 509.887C475.035 506.154 471.969 505.887 467.169 509.354Z" fill="white"/>
<path d="M457.169 552.687C441.569 568.687 428.235 583.087 427.435 584.821C425.702 588.554 427.835 591.354 431.035 589.487C432.235 588.821 445.835 575.221 461.302 559.221C482.102 537.621 489.169 529.487 488.902 527.354C488.635 525.887 487.835 524.421 487.035 524.154C486.235 523.887 472.769 536.687 457.169 552.687Z" fill="white"/>
<path d="M489.702 557.754C477.169 576.554 475.035 581.887 480.769 580.821C483.035 580.421 499.035 558.287 505.302 546.687C508.102 541.754 508.235 540.821 506.502 539.754C505.435 539.087 504.102 538.421 503.569 538.421C502.902 538.421 496.769 547.087 489.702 557.754Z" fill="white"/>
<path d="M519.969 554.021C516.236 561.621 491.702 621.087 490.236 626.287C489.302 629.621 489.436 631.087 490.769 631.887C493.702 633.887 494.636 633.221 497.036 627.354C511.436 593.887 527.836 552.421 527.302 550.954C525.969 547.487 522.636 548.954 519.969 554.021Z" fill="white"/>
<path d="M542.102 558.021C540.902 560.021 534.502 591.087 534.102 596.421C533.835 600.954 534.235 601.754 536.635 602.154C539.169 602.554 539.702 600.821 543.702 581.754C546.102 570.287 547.702 560.021 547.302 558.954C546.502 556.954 543.035 556.421 542.102 558.021Z" fill="white"/>
<path d="M429.702 883.754C409.169 886.021 395.035 901.487 397.835 918.687C399.035 925.887 401.169 930.021 406.102 934.687C411.169 939.487 416.235 941.487 437.702 946.954C458.502 952.287 463.302 954.287 468.502 959.754C473.969 965.487 474.769 977.087 470.369 985.087C462.102 999.621 436.102 1005.49 417.702 996.954C411.702 994.021 403.435 986.021 400.902 980.287C399.302 976.821 394.902 975.887 393.702 978.954C392.635 981.621 397.435 990.421 402.769 995.621C410.102 1003.09 419.835 1006.69 433.835 1007.49C460.369 1008.82 478.235 997.087 480.635 976.954C482.902 957.087 471.702 947.087 438.502 939.087C411.835 932.687 404.502 926.954 405.569 913.354C406.635 898.421 420.235 889.354 439.835 890.687C453.435 891.754 464.235 898.021 469.302 908.021C471.035 911.354 472.769 913.087 474.635 913.087C478.502 913.087 479.035 910.021 476.102 904.154C471.035 894.421 459.569 886.287 448.502 884.421C438.769 882.821 437.835 882.821 429.702 883.754Z" fill="white"/>
<path d="M638.902 886.287C630.235 889.487 626.102 892.421 618.235 900.821C607.169 912.554 602.502 925.887 602.502 945.087C602.502 971.621 613.835 992.421 634.102 1002.55C642.769 1006.95 643.835 1007.09 657.835 1007.09C671.035 1007.09 673.169 1006.69 679.835 1003.49C687.435 999.754 698.102 990.287 701.169 984.421C702.635 981.754 702.635 980.821 701.169 979.087C698.902 976.287 698.369 976.687 692.235 984.421C688.769 988.821 683.969 992.821 678.369 995.754C670.369 1000.15 669.035 1000.42 657.835 1000.42C647.302 1000.29 644.635 999.887 638.235 996.687C629.302 992.287 619.435 982.021 614.902 972.287C603.702 947.754 610.502 913.754 629.569 899.754C638.902 892.954 648.369 890.021 659.835 890.687C672.902 891.487 680.769 895.354 689.702 905.354C696.502 913.221 699.302 914.687 700.635 911.221C702.502 906.287 689.835 892.287 678.769 887.354C669.702 883.221 648.502 882.687 638.902 886.287Z" fill="white"/>
<path d="M1063.3 885.754C1052.37 889.621 1043.3 899.754 1041.7 909.754C1038.77 929.887 1049.84 939.621 1084.5 947.621C1099.44 951.087 1109.57 955.887 1113.44 961.487C1117.84 967.754 1117.7 980.154 1113.17 986.687C1106.24 996.954 1092.9 1002.02 1076.9 1000.69C1062.64 999.487 1054.24 994.154 1044.77 980.554C1039.84 973.487 1035.44 977.621 1039.3 985.754C1042.5 992.687 1049.97 999.487 1058.5 1003.62C1065.17 1006.82 1067.3 1007.09 1081.84 1007.09C1097.57 1007.09 1097.97 1006.95 1106.37 1002.42C1117.17 996.554 1123.57 987.621 1124.77 976.821C1126.77 957.087 1114.9 946.421 1082.64 938.954C1057.7 933.221 1049.17 927.221 1049.17 915.354C1049.17 896.021 1072.24 884.954 1095.44 893.087C1103.97 896.021 1109.57 900.821 1113.3 908.021C1115.04 911.354 1116.77 913.087 1118.64 913.087C1129.84 913.087 1113.3 890.821 1098.37 886.021C1089.97 883.221 1070.64 883.087 1063.3 885.754Z" fill="white"/>
<path d="M3.03529 887.087C2.63529 888.154 2.63529 889.621 3.16863 890.421C3.70196 891.221 17.9686 891.754 45.302 891.754H86.7686L79.702 900.687C65.1686 919.087 10.6353 987.354 5.30196 993.754C-1.63137 1002.15 -1.76471 1004.69 4.90196 1005.62C11.4353 1006.55 87.702 1006.55 91.5686 1005.49C93.5686 1005.09 94.502 1003.75 94.502 1001.62V998.421L53.1686 998.154L11.702 997.754L21.4353 985.754C43.1686 958.954 92.7686 896.287 94.102 894.021C94.7686 892.554 95.1686 890.021 94.7686 888.287L94.2353 885.087H49.0353C10.6353 885.087 3.70196 885.354 3.03529 887.087Z" fill="white"/>
<path d="M121.968 887.087C121.568 888.154 121.168 914.821 121.168 946.287C121.168 991.087 121.435 1003.75 122.768 1004.69C124.635 1005.89 193.702 1006.69 197.568 1005.49C199.168 1005.09 199.835 1003.89 199.568 1002.02C199.168 999.087 198.902 999.087 164.235 998.687L129.168 998.421V973.754V949.087L156.902 948.821L184.502 948.421V945.087V941.754L156.902 941.354L129.168 941.087V916.421V891.754H164.635H199.968L199.568 888.687L199.168 885.754L161.035 885.354C127.968 885.087 122.635 885.354 121.968 887.087Z" fill="white"/>
<path d="M227.835 888.421C226.768 891.221 226.768 971.887 227.702 1004.15C227.835 1005.89 228.635 1006.42 230.902 1006.15L233.835 1005.75L234.235 952.421L234.502 899.221L242.902 910.554C254.902 926.954 297.035 985.487 301.968 992.554C308.635 1002.02 313.168 1006.55 315.568 1006.15C317.702 1005.75 317.835 1000.95 318.235 948.421C318.368 916.821 318.235 889.754 317.835 888.021C317.435 886.287 316.102 885.087 314.502 885.087C313.035 885.087 311.702 885.221 311.568 885.354C311.435 885.621 310.902 909.354 310.502 938.287L309.835 990.821L278.502 947.087C230.768 880.421 230.768 880.554 227.835 888.421Z" fill="white"/>
<path d="M507.169 886.687C506.769 887.621 506.635 914.821 506.769 947.087L507.169 1005.62L545.835 1005.75H584.502V1002.42V999.087L549.169 998.421L513.835 997.754L513.702 973.754V949.754L541.702 949.087L569.835 948.421V945.087V941.754L541.569 941.354L513.169 941.087V916.421V891.754L548.902 891.487L584.502 891.087L584.902 888.021L585.302 885.087H546.502C516.769 885.087 507.569 885.487 507.169 886.687Z" fill="white"/>
<path d="M728.502 886.287C727.435 887.354 727.168 905.621 727.435 942.687C727.702 972.954 727.835 999.754 727.835 1002.15C727.835 1006.02 728.235 1006.55 730.902 1006.15C733.835 1005.75 733.835 1005.49 734.502 979.754L735.168 953.754H750.502H765.835L785.302 979.754C800.768 1000.42 805.435 1005.75 807.835 1005.75C809.568 1005.75 811.168 1005.09 811.435 1004.29C811.702 1003.49 804.102 992.287 794.502 979.354C785.035 966.421 777.168 955.221 777.168 954.687C777.168 954.021 780.368 952.821 784.368 951.887C793.435 949.887 802.635 944.154 806.368 938.021C807.968 935.354 809.835 929.754 810.502 925.487C813.168 909.621 806.902 895.887 793.835 889.221C787.435 885.887 786.235 885.754 758.502 885.354C739.302 885.087 729.435 885.354 728.502 886.287ZM789.302 895.487C797.568 899.487 802.502 906.687 803.435 916.021C804.368 925.621 802.235 931.754 795.835 937.621C787.968 944.687 780.235 946.421 755.568 946.421H734.502V918.954V891.487L758.902 892.021C781.035 892.421 783.702 892.687 789.302 895.487Z" fill="white"/>
<path d="M837.835 886.687C837.435 887.621 837.302 914.821 837.435 947.087L837.835 1005.75L873.835 1006.02C893.702 1006.29 911.169 1006.02 912.902 1005.75C915.169 1005.22 915.835 1004.15 915.569 1002.02L915.169 999.087L879.435 998.687L843.702 998.421L843.835 973.754L844.102 949.087L872.235 948.821L900.502 948.421V945.087V941.754L872.235 941.354L843.835 941.087V916.421V891.754H879.835H915.835V888.421V885.087H877.169C847.435 885.087 838.235 885.487 837.835 886.687Z" fill="white"/>
<path d="M934.502 887.087C931.302 890.954 934.502 891.754 955.036 891.754H975.302L975.169 948.687V1005.75H978.502H981.836L982.236 948.687L982.502 891.754H1003.7C1020.5 891.754 1025.04 891.354 1025.57 889.887C1027.3 885.487 1023.7 885.087 979.702 885.087C943.169 885.087 935.836 885.354 934.502 887.087Z" fill="white"/>
<path d="M176.102 1107.62C175.035 1108.29 174.502 1109.89 174.769 1111.22C175.169 1113.75 184.502 1113.75 555.169 1114.15C849.035 1114.29 935.169 1114.02 935.969 1112.82C936.502 1111.89 936.369 1110.15 935.702 1108.82C934.502 1106.55 919.302 1106.42 556.102 1106.42C348.102 1106.42 177.035 1106.95 176.102 1107.62Z" fill="white"/>
</svg>
