<svg width="1366" height="1366" viewBox="0 0 1366 1366" fill="none" xmlns="http://www.w3.org/2000/svg">
<path d="M667.333 70.2668C588.666 73.4668 515.6 99.0668 454.8 144.533C403.733 182.667 367.6 225.6 340.533 280C321.733 317.733 311.066 353.733 304.4 401.333C302.533 414.8 302.133 443.333 301.733 634.667C301.466 754.533 301.6 854.667 302 856.933C302.8 861.733 307.066 863.067 308.533 859.2C308.933 858 309.333 762.133 309.333 646.133C309.333 469.867 309.6 431.733 311.333 414.533C316.133 364.533 326.8 326.267 348 283.333C366.133 246.533 386.266 218.667 416.533 188.667C447.6 157.867 479.066 135.067 515.333 117.333C554.133 98.2668 588.4 87.8668 632 81.7334C657.333 78.2668 712.8 78.5334 738.266 82.4001C822.933 95.2001 890.4 128.4 949.066 186.4C1009.2 245.733 1042.53 313.467 1056.93 405.333C1058.93 417.733 1059.2 444 1059.87 640L1060.67 860.667L1063.47 861.067C1065.6 861.333 1066.53 860.533 1067.2 858.267C1068.67 852.4 1066.8 431.2 1065.2 414C1058.93 345.467 1032.13 275.867 990.8 220.8C958.133 177.333 909.6 136.533 861.066 111.867C811.6 86.8001 765.2 74.6668 703.2 70.6668C691.6 70.0001 680.8 69.4668 679.333 69.6001C677.866 69.7334 672.533 70.0001 667.333 70.2668Z" fill="white"/>
<path d="M692.933 310.133C692.4 310.667 692 331.6 692 356.667V402.267L704.4 408.4C718.8 415.6 731.733 425.867 739.733 436.533C767.067 472.667 772.533 520.8 754 560.933C743.2 584.133 723.467 604.133 699.067 616.533L692 620V667.2C692 709.067 692.267 714.533 694.133 715.2C695.333 715.6 696.8 715.733 697.467 715.2C698.133 714.8 698.667 695.733 698.667 671.067V627.733L702.4 628.533C704.4 629.067 715.333 629.733 726.667 630.133C745.867 630.8 748.267 630.667 760.667 627.467C797.867 617.867 825.333 595.733 842.4 561.733C859.6 527.6 857.733 483.2 837.6 448.8C829.2 434.267 809.6 414.667 796 407.067C777.867 396.933 754 390.667 734.267 390.667C724 390.8 706.267 393.2 701.067 395.333C698.8 396.267 698.667 393.467 698.4 353.2C698 315.467 697.733 310 696 309.6C694.8 309.467 693.467 309.6 692.933 310.133ZM767.067 403.2C792.933 410.933 813.2 425.6 827.867 447.467C841.867 468.4 846 482.667 846 510.667C846 530.533 845.867 531.867 841.6 543.867C826 588.667 789.733 617.6 742.933 622.667C729.467 624.133 708 623.333 708 621.333C708 620.8 712 617.733 717.067 614.667C734.8 603.2 753.067 581.6 761.733 561.733C774.4 532.933 775.333 496.8 764.133 465.333C756 442.133 737.2 418.4 718.133 407.067L708.933 401.467L713.467 400.133C716 399.333 726.133 398.933 736.667 399.2C752 399.6 757.333 400.267 767.067 403.2Z" fill="white"/>
<path d="M617.467 324.533C616.267 326 617.467 330.4 623.2 344.8C634.4 373.333 648 405.867 649.2 407.067C650.533 408.4 654.667 406.8 654.667 404.933C654.667 403.733 630.933 344.667 624.133 328.933C621.333 322.4 620 321.467 617.467 324.533Z" fill="white"/>
<path d="M661.866 356.533C661.066 358.533 667.066 390.8 669.333 396.8C670.666 400.267 674.266 401.067 675.466 398.267C675.733 397.333 674.133 387.2 671.733 376C668.266 359.6 666.8 355.333 664.933 354.933C663.733 354.667 662.266 355.333 661.866 356.533Z" fill="white"/>
<path d="M551.2 370C550.267 372.4 553.467 376 587.067 409.2C611.467 433.333 616 436.533 616 429.6C616 426.533 557.2 368 554.133 368C552.933 368 551.6 368.933 551.2 370Z" fill="white"/>
<path d="M605.867 380.667C605.333 381.733 605.333 383.467 605.733 384.4C607.333 388.667 629.733 418.667 631.333 418.667C632.267 418.667 633.6 417.867 634.4 416.933C635.867 415.333 635.067 414.133 615.733 386.667C609.867 378.4 607.333 376.8 605.867 380.667Z" fill="white"/>
<path d="M561.733 424.8C560.666 427.733 563.333 429.867 582.4 441.867C595.733 450.133 599.2 451.867 600.8 450.533C601.866 449.733 602.666 448.267 602.666 447.467C602.666 445.467 567.066 422.667 564 422.667C563.2 422.667 562.266 423.6 561.733 424.8Z" fill="white"/>
<path d="M509.733 439.467C508.533 442.533 510 443.333 526.666 449.733C535.066 452.933 552.4 459.6 565.066 464.533C577.6 469.333 588.533 473.333 589.2 473.333C590.4 473.333 592 470.267 592 468.133C592 466.8 580.933 462.267 557.333 453.467C547.466 449.867 533.866 444.667 527.066 442.133C513.333 436.8 510.933 436.4 509.733 439.467Z" fill="white"/>
<path d="M671.067 473.6C670.4 474.533 668.8 478.133 667.467 481.6C664.4 489.733 654.8 500.533 645.733 505.6C641.867 507.733 638.667 510.4 638.667 511.333C638.667 512.267 641.867 514.933 645.733 517.067C655.467 522.533 664.4 532.8 668.267 543.067C670.133 547.733 672.267 551.333 673.333 551.333C674.4 551.333 676.533 547.733 678.4 542.933C682.533 532.133 692.267 521.333 702.133 516.667C706.133 514.8 709.333 512.4 709.333 511.333C709.333 510.267 705.867 507.6 701.6 505.467C690 499.6 679.6 487.067 676.8 475.6C675.867 471.867 673.2 470.8 671.067 473.6ZM677.733 494C681.467 499.733 686.933 505.333 693.2 509.467L696.4 511.467L689.6 516.4C685.867 519.067 680.8 524.267 678.267 528L673.733 534.667L668.533 527.733C665.6 523.867 660.4 518.533 656.933 516C651.467 512 650.933 511.2 652.8 510C658 506.933 667.067 497.733 669.467 493.067C670.933 490.267 672.533 488 673.067 488C673.6 488 675.733 490.667 677.733 494Z" fill="white"/>
<path d="M540.8 482C536.267 486.667 537.2 486.933 578.933 494.133C582.933 494.8 584.133 494.533 584.8 492.8C585.333 491.467 585.2 490 584.533 489.333C583.867 488.667 575.6 486.533 566 484.667C556.533 482.8 547.467 480.8 545.867 480.533C544.267 480.133 542.133 480.8 540.8 482Z" fill="white"/>
<path d="M494.666 508.667C493.733 509.733 493.333 511.6 493.866 512.667C494.533 514.4 500.133 514.667 538.266 514.4C581.6 514 582 514 582.4 511.2C582.8 508.667 582 508.4 571.733 507.6C565.6 507.067 546.133 506.667 528.533 506.667C501.6 506.667 496 506.933 494.666 508.667Z" fill="white"/>
<path d="M565.333 537.333C557.6 539.333 548.8 541.733 545.733 542.533C541.467 543.733 540 544.8 540 546.667C540 548 540.533 549.6 541.333 550C542 550.4 549.733 548.933 558.267 546.667C566.933 544.4 576.267 541.867 579.067 541.2C583.067 540.133 584 539.333 584 536.667C584 532.533 583.067 532.533 565.333 537.333Z" fill="white"/>
<path d="M588 557.2C586.933 557.867 570.133 564.8 550.666 572.667C531.2 580.533 514 587.733 512.4 588.8C509.066 590.933 509.6 594.667 513.333 594.667C514.533 594.667 530.266 588.667 548.133 581.467C595.466 562.267 593.6 563.2 593.066 559.733C592.666 556.4 590.8 555.6 588 557.2Z" fill="white"/>
<path d="M595.333 578.933C571.333 596.133 562.667 603.2 562.667 605.467C562.667 610.267 568 608.133 582.4 597.467C590.267 591.733 598.4 586 600.4 584.667C602.933 583.067 604 581.333 603.733 579.467C603.2 575.733 600.133 575.467 595.333 578.933Z" fill="white"/>
<path d="M585.333 622.267C569.733 638.267 556.4 652.667 555.6 654.4C553.867 658.133 556 660.933 559.2 659.067C560.4 658.4 574 644.8 589.467 628.8C610.267 607.2 617.333 599.067 617.067 596.933C616.8 595.467 616 594 615.2 593.733C614.4 593.467 600.933 606.267 585.333 622.267Z" fill="white"/>
<path d="M617.866 627.333C605.333 646.133 603.2 651.467 608.933 650.4C611.2 650 627.2 627.867 633.466 616.267C636.266 611.333 636.4 610.4 634.666 609.333C633.6 608.667 632.266 608 631.733 608C631.066 608 624.933 616.667 617.866 627.333Z" fill="white"/>
<path d="M648.133 623.6C644.4 631.2 619.867 690.667 618.4 695.867C617.467 699.2 617.6 700.667 618.933 701.467C621.867 703.467 622.8 702.8 625.2 696.933C639.6 663.467 656 622 655.467 620.533C654.133 617.067 650.8 618.533 648.133 623.6Z" fill="white"/>
<path d="M670.266 627.6C669.066 629.6 662.666 660.667 662.266 666C662 670.533 662.4 671.333 664.8 671.733C667.333 672.133 667.866 670.4 671.866 651.333C674.266 639.867 675.866 629.6 675.466 628.533C674.666 626.533 671.2 626 670.266 627.6Z" fill="white"/>
<path d="M557.867 953.333C537.333 955.6 523.2 971.067 526 988.267C527.2 995.467 529.333 999.6 534.267 1004.27C539.333 1009.07 544.4 1011.07 565.867 1016.53C586.667 1021.87 591.467 1023.87 596.667 1029.33C602.133 1035.07 602.933 1046.67 598.533 1054.67C590.267 1069.2 564.267 1075.07 545.867 1066.53C539.867 1063.6 531.6 1055.6 529.067 1049.87C527.467 1046.4 523.067 1045.47 521.867 1048.53C520.8 1051.2 525.6 1060 530.933 1065.2C538.267 1072.67 548 1076.27 562 1077.07C588.533 1078.4 606.4 1066.67 608.8 1046.53C611.067 1026.67 599.867 1016.67 566.667 1008.67C540 1002.27 532.667 996.533 533.733 982.933C534.8 968 548.4 958.933 568 960.267C581.6 961.333 592.4 967.6 597.467 977.6C599.2 980.933 600.933 982.667 602.8 982.667C606.667 982.667 607.2 979.6 604.267 973.733C599.2 964 587.733 955.867 576.667 954C566.933 952.4 566 952.4 557.867 953.333Z" fill="white"/>
<path d="M767.067 955.867C758.4 959.067 754.267 962 746.4 970.4C735.333 982.133 730.667 995.467 730.667 1014.67C730.667 1041.2 742 1062 762.267 1072.13C770.933 1076.53 772 1076.67 786 1076.67C799.2 1076.67 801.333 1076.27 808 1073.07C815.6 1069.33 826.266 1059.87 829.333 1054C830.8 1051.33 830.8 1050.4 829.333 1048.67C827.066 1045.87 826.533 1046.27 820.4 1054C816.933 1058.4 812.133 1062.4 806.533 1065.33C798.533 1069.73 797.2 1070 786 1070C775.467 1069.87 772.8 1069.47 766.4 1066.27C757.467 1061.87 747.6 1051.6 743.067 1041.87C731.867 1017.33 738.667 983.333 757.733 969.333C767.067 962.533 776.533 959.6 788 960.267C801.066 961.067 808.933 964.933 817.866 974.933C824.666 982.8 827.466 984.267 828.8 980.8C830.666 975.867 818 961.867 806.933 956.933C797.866 952.8 776.667 952.267 767.067 955.867Z" fill="white"/>
<path d="M1191.47 955.333C1180.53 959.2 1171.47 969.333 1169.87 979.333C1166.93 999.467 1178 1009.2 1212.67 1017.2C1227.6 1020.67 1237.73 1025.47 1241.6 1031.07C1246 1037.33 1245.87 1049.73 1241.33 1056.27C1234.4 1066.53 1221.07 1071.6 1205.07 1070.27C1190.8 1069.07 1182.4 1063.73 1172.93 1050.13C1168 1043.07 1163.6 1047.2 1167.47 1055.33C1170.67 1062.27 1178.13 1069.07 1186.67 1073.2C1193.33 1076.4 1195.47 1076.67 1210 1076.67C1225.73 1076.67 1226.13 1076.53 1234.53 1072C1245.33 1066.13 1251.73 1057.2 1252.93 1046.4C1254.93 1026.67 1243.07 1016 1210.8 1008.53C1185.87 1002.8 1177.33 996.8 1177.33 984.933C1177.33 965.6 1200.4 954.533 1223.6 962.667C1232.13 965.6 1237.73 970.4 1241.47 977.6C1243.2 980.933 1244.93 982.667 1246.8 982.667C1258 982.667 1241.47 960.4 1226.53 955.6C1218.13 952.8 1198.8 952.667 1191.47 955.333Z" fill="white"/>
<path d="M131.2 956.667C130.8 957.733 130.8 959.2 131.333 960C131.867 960.8 146.133 961.333 173.467 961.333H214.933L207.867 970.267C193.333 988.667 138.8 1056.93 133.467 1063.33C126.533 1071.73 126.4 1074.27 133.067 1075.2C139.6 1076.13 215.867 1076.13 219.733 1075.07C221.733 1074.67 222.667 1073.33 222.667 1071.2V1068L181.333 1067.73L139.867 1067.33L149.6 1055.33C171.333 1028.53 220.933 965.867 222.267 963.6C222.933 962.133 223.333 959.6 222.933 957.867L222.4 954.667H177.2C138.8 954.667 131.867 954.933 131.2 956.667Z" fill="white"/>
<path d="M250.133 956.667C249.733 957.733 249.333 984.4 249.333 1015.87C249.333 1060.67 249.6 1073.33 250.933 1074.27C252.8 1075.47 321.866 1076.27 325.733 1075.07C327.333 1074.67 328 1073.47 327.733 1071.6C327.333 1068.67 327.066 1068.67 292.4 1068.27L257.333 1068V1043.33V1018.67L285.066 1018.4L312.666 1018V1014.67V1011.33L285.066 1010.93L257.333 1010.67V986V961.333H292.8H328.133L327.733 958.267L327.333 955.333L289.2 954.933C256.133 954.667 250.8 954.933 250.133 956.667Z" fill="white"/>
<path d="M356 958C354.933 960.8 354.933 1041.47 355.866 1073.73C356 1075.47 356.8 1076 359.066 1075.73L362 1075.33L362.4 1022L362.666 968.8L371.066 980.133C383.066 996.533 425.2 1055.07 430.133 1062.13C436.8 1071.6 441.333 1076.13 443.733 1075.73C445.866 1075.33 446 1070.53 446.4 1018C446.533 986.4 446.4 959.333 446 957.6C445.6 955.867 444.266 954.667 442.666 954.667C441.2 954.667 439.866 954.8 439.733 954.933C439.6 955.2 439.066 978.933 438.666 1007.87L438 1060.4L406.666 1016.67C358.933 950 358.933 950.133 356 958Z" fill="white"/>
<path d="M635.333 956.267C634.933 957.2 634.8 984.4 634.933 1016.67L635.333 1075.2L674 1075.33H712.667V1072V1068.67L677.333 1068L642 1067.33L641.867 1043.33V1019.33L669.867 1018.67L698 1018V1014.67V1011.33L669.733 1010.93L641.333 1010.67V986V961.333L677.067 961.067L712.667 960.667L713.067 957.6L713.467 954.667H674.667C644.933 954.667 635.733 955.067 635.333 956.267Z" fill="white"/>
<path d="M856.667 955.867C855.6 956.933 855.333 975.2 855.6 1012.27C855.867 1042.53 856 1069.33 856 1071.73C856 1075.6 856.4 1076.13 859.067 1075.73C862 1075.33 862 1075.07 862.667 1049.33L863.333 1023.33H878.667H894L913.467 1049.33C928.933 1070 933.6 1075.33 936 1075.33C937.733 1075.33 939.333 1074.67 939.6 1073.87C939.867 1073.07 932.267 1061.87 922.667 1048.93C913.2 1036 905.333 1024.8 905.333 1024.27C905.333 1023.6 908.533 1022.4 912.533 1021.47C921.6 1019.47 930.8 1013.73 934.533 1007.6C936.133 1004.93 938 999.333 938.667 995.067C941.333 979.2 935.067 965.467 922 958.8C915.6 955.467 914.4 955.333 886.667 954.933C867.467 954.667 857.6 954.933 856.667 955.867ZM917.467 965.067C925.733 969.067 930.667 976.267 931.6 985.6C932.533 995.2 930.4 1001.33 924 1007.2C916.133 1014.27 908.4 1016 883.733 1016H862.667V988.533V961.067L887.067 961.6C909.2 962 911.867 962.267 917.467 965.067Z" fill="white"/>
<path d="M966 956.267C965.6 957.2 965.466 984.4 965.6 1016.67L966 1075.33L1002 1075.6C1021.87 1075.87 1039.33 1075.6 1041.07 1075.33C1043.33 1074.8 1044 1073.73 1043.73 1071.6L1043.33 1068.67L1007.6 1068.27L971.866 1068L972 1043.33L972.266 1018.67L1000.4 1018.4L1028.67 1018V1014.67V1011.33L1000.4 1010.93L972 1010.67V986V961.333H1008H1044V958V954.667H1005.33C975.6 954.667 966.4 955.067 966 956.267Z" fill="white"/>
<path d="M1062.67 956.667C1059.47 960.533 1062.67 961.333 1083.2 961.333H1103.47L1103.33 1018.27V1075.33H1106.67H1110L1110.4 1018.27L1110.67 961.333H1131.87C1148.67 961.333 1153.2 960.933 1153.73 959.467C1155.47 955.067 1151.87 954.667 1107.87 954.667C1071.33 954.667 1064 954.933 1062.67 956.667Z" fill="white"/>
<path d="M304.267 1177.2C303.2 1177.87 302.667 1179.47 302.933 1180.8C303.333 1183.33 312.667 1183.33 683.333 1183.73C977.2 1183.87 1063.33 1183.6 1064.13 1182.4C1064.67 1181.47 1064.53 1179.73 1063.87 1178.4C1062.67 1176.13 1047.47 1176 684.267 1176C476.267 1176 305.2 1176.53 304.267 1177.2Z" fill="white"/>
</svg>
